<svg version="1.1" viewBox="0 0 36 36" xmlns="http://www.w3.org/2000/svg"><path d="m35 36v-5c0-3.31-2.69-6-6-6h-16c-3.31 0-6 2.69-6 6v5h28z" fill="#FA743E"/><path d="m16.6 25.1c0 0.894 2.36 1.99 4.36 1.99s4.36-1.1 4.36-1.99v-3.82h-8.72v3.82z" fill="#FFDC5D"/><path d="m16.6 23.1c1.22 1.37 2.72 1.75 4.36 1.75 1.64 0 3.15-0.373 4.36-1.75v-3.49h-8.73v3.49z" fill="#F9CA55"/><path d="m24.7 0.531c-1.92-0.623-6.46-0.453-7.59 1.02-2.94 0.057-6.4 2.72-6.85 6.23-0.448 3.48 0.551 5.09 0.906 7.7 0.403 2.96 2.07 3.91 3.4 4.3 1.91 2.53 3.95 2.42 7.37 2.42 6.67 0 9.85-4.46 10.1-12 0.17-4.58-2.52-8.06-7.36-9.62z" fill="#FFAC33"/><path d="m28.5 10.5c-0.646-0.894-1.47-1.61-3.28-1.87 0.68 0.311 1.33 1.39 1.42 1.98s0.17 1.08-0.368 0.481c-2.16-2.38-4.5-1.44-6.83-2.9-1.62-1.02-2.12-2.14-2.12-2.14s-0.198 1.5-2.66 3.03c-0.714 0.443-1.57 1.43-2.04 2.89-0.34 1.05-0.234 1.98-0.234 3.58 0 4.66 3.84 8.58 8.58 8.58s8.58-3.95 8.58-8.58c-2e-3 -2.9-0.305-4.03-1.04-5.05z" fill="#FFDC5D"/><path d="M33 35c0 .553-.447 1-1 1H22c-.553 0-1-.447-1-1 0-.553.447-1 1-1h10c.553 0 1 .447 1 1z" fill="#E1E8ED"/><path d="m20.2 22h-16.5c-1.52 0-3.48 0.771-2.48 3.53l3.07 8.48c1e-3 0 0.397 1.99 2.65 1.99h20l-4-11.2c-0.438-1.32-1.24-2.76-2.76-2.76z" fill="#e1e8ed"/><path d="m19.2 22h-16.5c-1.52 0-3.48 0.771-2.48 3.53l3.07 8.48c1e-3 0 0.397 1.99 2.65 1.99h20l-4-11.2c-0.438-1.32-1.24-2.76-2.76-2.76z" fill="#99AAB5"/><path d="m14 29.3c0.524 1.57 0.099 3.13-0.949 3.48-1.05 0.35-2.32-0.641-2.85-2.21s-0.099-3.13 0.949-3.48 2.32 0.641 2.85 2.21zm4.98-4.53h-16c-0.414 0-0.75-0.336-0.75-0.75s0.336-0.75 0.75-0.75h16c0.414 0 0.75 0.336 0.75 0.75s-0.336 0.75-0.75 0.75z" fill="#e1e8ed"/><g transform="matrix(1.04 0 0 1.04 13.2 -5.91)"><circle cx="12.8" cy="22.4" r="2.38" fill="#ff7892" style="stroke-width:.477"/><circle cx="2.28" cy="22.4" r="2.38" fill="#ff7892" style="stroke-width:.477"/><path d="m12.8 18.5c-0.122 0-0.244-0.0468-0.337-0.14-1.23-1.23-3.37-0.828-3.39-0.823-0.261 0.052-0.509-0.118-0.56-0.375-0.051-0.258 0.115-0.508 0.373-0.56 0.108-0.0219 2.65-0.508 4.25 1.08 0.187 0.187 0.187 0.488 0 0.674-0.0925 0.093-0.215 0.14-0.337 0.14zm-10.5 0c-0.122 0-0.244-0.0468-0.337-0.14-0.187-0.187-0.187-0.488 0-0.674 1.59-1.59 4.14-1.11 4.25-1.08 0.259 0.0515 0.426 0.303 0.374 0.561-0.0515 0.258-0.302 0.425-0.56 0.374-0.0329-0.0072-2.16-0.402-3.39 0.823-0.093 0.0925-0.215 0.139-0.337 0.139zm9.06 2.38c-0.122 0-0.244-0.0468-0.337-0.14-0.622-0.622-1.95-0.465-2.41-0.351-0.258 0.063-0.514-0.093-0.578-0.348-0.0634-0.256 0.0916-0.514 0.347-0.578 0.0887-0.0219 2.18-0.53 3.31 0.602 0.187 0.187 0.187 0.488 0 0.674-0.093 0.093-0.215 0.14-0.337 0.14zm-7.63 0c-0.122 0-0.244-0.0468-0.337-0.14-0.187-0.187-0.187-0.488 0-0.674 1.13-1.13 3.23-0.624 3.32-0.602 0.255 0.0639 0.41 0.322 0.347 0.578-0.063 0.256-0.321 0.412-0.577 0.348-0.46-0.113-1.79-0.27-2.41 0.351-0.0935 0.093-0.216 0.14-0.338 0.14z" fill="#664500" style="stroke-width:.477"/><path d="m7.53 25.9c-2.07 0-2.61-2.07-2.62-2.09-0.0262-0.104 0.0205-0.212 0.114-0.266 0.0911-0.0506 0.205-0.0377 0.282 0.0343 0.0186 0.0162 0.508 0.412 2.22 0.412 1.74 0 2.22-0.408 2.22-0.412 0.0787-0.0696 0.195-0.0816 0.285-0.0286 0.0897 0.0539 0.135 0.158 0.11 0.259-0.0052 0.021-0.546 2.09-2.62 2.09zm-2.38-2.15h0.00477z" style="fill:#664500;stroke-width:.477"/></g><g transform="matrix(.709 0 .164 1 14.2 -3.25)" style="fill:none"><g fill="#99aab5"><circle cx="-8.77" cy="33.8" r=".81" style="stroke-width:.162"/><circle cx="-12.3" cy="33.8" r=".81" style="stroke-width:.162"/><path d="m-8.77 32.5c-0.0415 0-0.0829-0.0159-0.115-0.0475-0.417-0.417-1.14-0.281-1.15-0.28-0.0888 0.0177-0.173-0.04-0.19-0.127-0.0173-0.0876 0.0392-0.173 0.127-0.19 0.0368-0.0075 0.901-0.173 1.44 0.368 0.0633 0.0633 0.0633 0.166 0 0.229-0.0314 0.0316-0.0729 0.0475-0.114 0.0475zm-3.56 0c-0.0415 0-0.0829-0.0159-0.115-0.0475-0.0633-0.0633-0.0633-0.166 0-0.229 0.541-0.541 1.41-0.376 1.44-0.368 0.0878 0.0175 0.145 0.103 0.127 0.191-0.0175 0.0875-0.103 0.145-0.19 0.127-0.0112-0.0024-0.734-0.137-1.15 0.28-0.0316 0.0314-0.0731 0.0473-0.115 0.0473zm3.08 0.81c-0.0415 0-0.0829-0.0159-0.115-0.0475-0.211-0.211-0.663-0.158-0.818-0.119-0.0875 0.0214-0.174-0.0316-0.196-0.118-0.0216-0.0868 0.0311-0.174 0.118-0.196 0.0301-0.0075 0.741-0.18 1.13 0.205 0.0633 0.0633 0.0633 0.166 0 0.229-0.0316 0.0316-0.0731 0.0475-0.115 0.0475zm-2.59 0c-0.0415 0-0.0829-0.0159-0.115-0.0475-0.0633-0.0633-0.0633-0.166 0-0.229 0.384-0.384 1.1-0.212 1.13-0.205 0.0867 0.0217 0.139 0.109 0.118 0.196-0.0214 0.0868-0.109 0.14-0.196 0.118-0.156-0.0384-0.607-0.0918-0.818 0.119-0.0318 0.0316-0.0732 0.0475-0.115 0.0475z" style="stroke-width:.162"/></g><path d="m-10.5 35c-0.703 0-0.887-0.702-0.889-0.709-0.0089-0.0353 7e-3 -0.0721 0.0386-0.0902 0.0309-0.0172 0.0697-0.0128 0.0957 0.0117 0.0063 0.0055 0.173 0.14 0.754 0.14 0.59 0 0.753-0.139 0.754-0.14 0.0267-0.0236 0.0663-0.0277 0.0967-0.0097 0.0305 0.0183 0.046 0.0536 0.0374 0.0881-0.0018 0.0071-0.185 0.709-0.889 0.709zm-0.81-0.729h0.0016z" style="fill:#99aab5;stroke-width:.162"/></g></svg>
