<?xml version="1.0" encoding="utf-8" standalone="no"?>
<!DOCTYPE svg PUBLIC "-//W3C//DTD SVG 1.1//EN"
  "http://www.w3.org/Graphics/SVG/1.1/DTD/svg11.dtd">
<svg xmlns:xlink="http://www.w3.org/1999/xlink" width="414.998125pt" height="325.98825pt" viewBox="0 0 414.998125 325.98825" xmlns="http://www.w3.org/2000/svg" version="1.1">
 <metadata>
  <rdf:RDF xmlns:dc="http://purl.org/dc/elements/1.1/" xmlns:cc="http://creativecommons.org/ns#" xmlns:rdf="http://www.w3.org/1999/02/22-rdf-syntax-ns#">
   <cc:Work>
    <dc:type rdf:resource="http://purl.org/dc/dcmitype/StillImage"/>
    <dc:date>2024-06-25T02:58:41.495255</dc:date>
    <dc:format>image/svg+xml</dc:format>
    <dc:creator>
     <cc:Agent>
      <dc:title>Matplotlib v3.8.3, https://matplotlib.org/</dc:title>
     </cc:Agent>
    </dc:creator>
   </cc:Work>
  </rdf:RDF>
 </metadata>
 <defs>
  <style type="text/css">*{stroke-linejoin: round; stroke-linecap: butt}</style>
 </defs>
 <g id="figure_1">
  <g id="patch_1">
   <path d="M -0 325.98825 
L 414.998125 325.98825 
L 414.998125 0 
L -0 0 
z
" style="fill: #ffffff"/>
  </g>
  <g id="axes_1">
   <g id="patch_2">
    <path d="M 42.678125 288.432 
L 399.798125 288.432 
L 399.798125 22.32 
L 42.678125 22.32 
z
" style="fill: #ffffff"/>
   </g>
   <g id="matplotlib.axis_1">
    <g id="xtick_1">
     <g id="line2d_1">
      <path d="M 42.678125 288.432 
L 42.678125 22.32 
" clip-path="url(#pe6134b2c10)" style="fill: none; stroke: #b0b0b0; stroke-opacity: 0.5; stroke-width: 0.8; stroke-linecap: square"/>
     </g>
     <g id="line2d_2">
      <defs>
       <path id="m2283d975a2" d="M 0 0 
L 0 3.5 
" style="stroke: #000000; stroke-width: 0.8"/>
      </defs>
      <g>
       <use xlink:href="#m2283d975a2" x="42.678125" y="288.432" style="stroke: #000000; stroke-width: 0.8"/>
      </g>
     </g>
     <g id="text_1">
      <!-- $\mathdefault{0.0}$ -->
      <g transform="translate(34.678125 303.030437) scale(0.1 -0.1)">
       <defs>
        <path id="DejaVuSans-30" d="M 2034 4250 
Q 1547 4250 1301 3770 
Q 1056 3291 1056 2328 
Q 1056 1369 1301 889 
Q 1547 409 2034 409 
Q 2525 409 2770 889 
Q 3016 1369 3016 2328 
Q 3016 3291 2770 3770 
Q 2525 4250 2034 4250 
z
M 2034 4750 
Q 2819 4750 3233 4129 
Q 3647 3509 3647 2328 
Q 3647 1150 3233 529 
Q 2819 -91 2034 -91 
Q 1250 -91 836 529 
Q 422 1150 422 2328 
Q 422 3509 836 4129 
Q 1250 4750 2034 4750 
z
" transform="scale(0.015625)"/>
        <path id="DejaVuSans-2e" d="M 684 794 
L 1344 794 
L 1344 0 
L 684 0 
L 684 794 
z
" transform="scale(0.015625)"/>
       </defs>
       <use xlink:href="#DejaVuSans-30" transform="translate(0 0.78125)"/>
       <use xlink:href="#DejaVuSans-2e" transform="translate(63.623047 0.78125)"/>
       <use xlink:href="#DejaVuSans-30" transform="translate(95.410156 0.78125)"/>
      </g>
     </g>
    </g>
    <g id="xtick_2">
     <g id="line2d_3">
      <path d="M 114.102125 288.432 
L 114.102125 22.32 
" clip-path="url(#pe6134b2c10)" style="fill: none; stroke: #b0b0b0; stroke-opacity: 0.5; stroke-width: 0.8; stroke-linecap: square"/>
     </g>
     <g id="line2d_4">
      <g>
       <use xlink:href="#m2283d975a2" x="114.102125" y="288.432" style="stroke: #000000; stroke-width: 0.8"/>
      </g>
     </g>
     <g id="text_2">
      <!-- $\mathdefault{0.2}$ -->
      <g transform="translate(106.402125 303.030437) scale(0.1 -0.1)">
       <defs>
        <path id="DejaVuSans-32" d="M 1228 531 
L 3431 531 
L 3431 0 
L 469 0 
L 469 531 
Q 828 903 1448 1529 
Q 2069 2156 2228 2338 
Q 2531 2678 2651 2914 
Q 2772 3150 2772 3378 
Q 2772 3750 2511 3984 
Q 2250 4219 1831 4219 
Q 1534 4219 1204 4116 
Q 875 4013 500 3803 
L 500 4441 
Q 881 4594 1212 4672 
Q 1544 4750 1819 4750 
Q 2544 4750 2975 4387 
Q 3406 4025 3406 3419 
Q 3406 3131 3298 2873 
Q 3191 2616 2906 2266 
Q 2828 2175 2409 1742 
Q 1991 1309 1228 531 
z
" transform="scale(0.015625)"/>
       </defs>
       <use xlink:href="#DejaVuSans-30" transform="translate(0 0.78125)"/>
       <use xlink:href="#DejaVuSans-2e" transform="translate(63.623047 0.78125)"/>
       <use xlink:href="#DejaVuSans-32" transform="translate(89.910156 0.78125)"/>
      </g>
     </g>
    </g>
    <g id="xtick_3">
     <g id="line2d_5">
      <path d="M 185.526125 288.432 
L 185.526125 22.32 
" clip-path="url(#pe6134b2c10)" style="fill: none; stroke: #b0b0b0; stroke-opacity: 0.5; stroke-width: 0.8; stroke-linecap: square"/>
     </g>
     <g id="line2d_6">
      <g>
       <use xlink:href="#m2283d975a2" x="185.526125" y="288.432" style="stroke: #000000; stroke-width: 0.8"/>
      </g>
     </g>
     <g id="text_3">
      <!-- $\mathdefault{0.4}$ -->
      <g transform="translate(177.526125 303.030437) scale(0.1 -0.1)">
       <defs>
        <path id="DejaVuSans-34" d="M 2419 4116 
L 825 1625 
L 2419 1625 
L 2419 4116 
z
M 2253 4666 
L 3047 4666 
L 3047 1625 
L 3713 1625 
L 3713 1100 
L 3047 1100 
L 3047 0 
L 2419 0 
L 2419 1100 
L 313 1100 
L 313 1709 
L 2253 4666 
z
" transform="scale(0.015625)"/>
       </defs>
       <use xlink:href="#DejaVuSans-30" transform="translate(0 0.78125)"/>
       <use xlink:href="#DejaVuSans-2e" transform="translate(63.623047 0.78125)"/>
       <use xlink:href="#DejaVuSans-34" transform="translate(95.410156 0.78125)"/>
      </g>
     </g>
    </g>
    <g id="xtick_4">
     <g id="line2d_7">
      <path d="M 256.950125 288.432 
L 256.950125 22.32 
" clip-path="url(#pe6134b2c10)" style="fill: none; stroke: #b0b0b0; stroke-opacity: 0.5; stroke-width: 0.8; stroke-linecap: square"/>
     </g>
     <g id="line2d_8">
      <g>
       <use xlink:href="#m2283d975a2" x="256.950125" y="288.432" style="stroke: #000000; stroke-width: 0.8"/>
      </g>
     </g>
     <g id="text_4">
      <!-- $\mathdefault{0.6}$ -->
      <g transform="translate(248.950125 303.030437) scale(0.1 -0.1)">
       <defs>
        <path id="DejaVuSans-36" d="M 2113 2584 
Q 1688 2584 1439 2293 
Q 1191 2003 1191 1497 
Q 1191 994 1439 701 
Q 1688 409 2113 409 
Q 2538 409 2786 701 
Q 3034 994 3034 1497 
Q 3034 2003 2786 2293 
Q 2538 2584 2113 2584 
z
M 3366 4563 
L 3366 3988 
Q 3128 4100 2886 4159 
Q 2644 4219 2406 4219 
Q 1781 4219 1451 3797 
Q 1122 3375 1075 2522 
Q 1259 2794 1537 2939 
Q 1816 3084 2150 3084 
Q 2853 3084 3261 2657 
Q 3669 2231 3669 1497 
Q 3669 778 3244 343 
Q 2819 -91 2113 -91 
Q 1303 -91 875 529 
Q 447 1150 447 2328 
Q 447 3434 972 4092 
Q 1497 4750 2381 4750 
Q 2619 4750 2861 4703 
Q 3103 4656 3366 4563 
z
" transform="scale(0.015625)"/>
       </defs>
       <use xlink:href="#DejaVuSans-30" transform="translate(0 0.78125)"/>
       <use xlink:href="#DejaVuSans-2e" transform="translate(63.623047 0.78125)"/>
       <use xlink:href="#DejaVuSans-36" transform="translate(95.410156 0.78125)"/>
      </g>
     </g>
    </g>
    <g id="xtick_5">
     <g id="line2d_9">
      <path d="M 328.374125 288.432 
L 328.374125 22.32 
" clip-path="url(#pe6134b2c10)" style="fill: none; stroke: #b0b0b0; stroke-opacity: 0.5; stroke-width: 0.8; stroke-linecap: square"/>
     </g>
     <g id="line2d_10">
      <g>
       <use xlink:href="#m2283d975a2" x="328.374125" y="288.432" style="stroke: #000000; stroke-width: 0.8"/>
      </g>
     </g>
     <g id="text_5">
      <!-- $\mathdefault{0.8}$ -->
      <g transform="translate(320.524125 303.030437) scale(0.1 -0.1)">
       <defs>
        <path id="DejaVuSans-38" d="M 2034 2216 
Q 1584 2216 1326 1975 
Q 1069 1734 1069 1313 
Q 1069 891 1326 650 
Q 1584 409 2034 409 
Q 2484 409 2743 651 
Q 3003 894 3003 1313 
Q 3003 1734 2745 1975 
Q 2488 2216 2034 2216 
z
M 1403 2484 
Q 997 2584 770 2862 
Q 544 3141 544 3541 
Q 544 4100 942 4425 
Q 1341 4750 2034 4750 
Q 2731 4750 3128 4425 
Q 3525 4100 3525 3541 
Q 3525 3141 3298 2862 
Q 3072 2584 2669 2484 
Q 3125 2378 3379 2068 
Q 3634 1759 3634 1313 
Q 3634 634 3220 271 
Q 2806 -91 2034 -91 
Q 1263 -91 848 271 
Q 434 634 434 1313 
Q 434 1759 690 2068 
Q 947 2378 1403 2484 
z
M 1172 3481 
Q 1172 3119 1398 2916 
Q 1625 2713 2034 2713 
Q 2441 2713 2670 2916 
Q 2900 3119 2900 3481 
Q 2900 3844 2670 4047 
Q 2441 4250 2034 4250 
Q 1625 4250 1398 4047 
Q 1172 3844 1172 3481 
z
" transform="scale(0.015625)"/>
       </defs>
       <use xlink:href="#DejaVuSans-30" transform="translate(0 0.78125)"/>
       <use xlink:href="#DejaVuSans-2e" transform="translate(63.623047 0.78125)"/>
       <use xlink:href="#DejaVuSans-38" transform="translate(92.785156 0.78125)"/>
      </g>
     </g>
    </g>
    <g id="xtick_6">
     <g id="line2d_11">
      <path d="M 399.798125 288.432 
L 399.798125 22.32 
" clip-path="url(#pe6134b2c10)" style="fill: none; stroke: #b0b0b0; stroke-opacity: 0.5; stroke-width: 0.8; stroke-linecap: square"/>
     </g>
     <g id="line2d_12">
      <g>
       <use xlink:href="#m2283d975a2" x="399.798125" y="288.432" style="stroke: #000000; stroke-width: 0.8"/>
      </g>
     </g>
     <g id="text_6">
      <!-- $\mathdefault{1.0}$ -->
      <g transform="translate(391.798125 303.030437) scale(0.1 -0.1)">
       <defs>
        <path id="DejaVuSans-31" d="M 794 531 
L 1825 531 
L 1825 4091 
L 703 3866 
L 703 4441 
L 1819 4666 
L 2450 4666 
L 2450 531 
L 3481 531 
L 3481 0 
L 794 0 
L 794 531 
z
" transform="scale(0.015625)"/>
       </defs>
       <use xlink:href="#DejaVuSans-31" transform="translate(0 0.78125)"/>
       <use xlink:href="#DejaVuSans-2e" transform="translate(63.623047 0.78125)"/>
       <use xlink:href="#DejaVuSans-30" transform="translate(95.410156 0.78125)"/>
      </g>
     </g>
    </g>
    <g id="text_7">
     <!-- $t$ -->
     <g transform="translate(219.238125 316.708562) scale(0.1 -0.1)">
      <defs>
       <path id="DejaVuSans-Oblique-74" d="M 2706 3500 
L 2619 3053 
L 1472 3053 
L 1100 1153 
Q 1081 1047 1072 975 
Q 1063 903 1063 863 
Q 1063 663 1183 572 
Q 1303 481 1569 481 
L 2150 481 
L 2053 0 
L 1503 0 
Q 991 0 739 200 
Q 488 400 488 806 
Q 488 878 497 964 
Q 506 1050 525 1153 
L 897 3053 
L 409 3053 
L 500 3500 
L 978 3500 
L 1172 4494 
L 1747 4494 
L 1556 3500 
L 2706 3500 
z
" transform="scale(0.015625)"/>
      </defs>
      <use xlink:href="#DejaVuSans-Oblique-74" transform="translate(0 0.78125)"/>
     </g>
    </g>
    <g id="text_8">
     <!-- $\times\mathdefault{10^{−4}}\mathdefault{}$ -->
     <g transform="translate(367.998125 315.708562) scale(0.1 -0.1)">
      <defs>
       <path id="DejaVuSans-d7" d="M 4488 3438 
L 3059 2003 
L 4488 575 
L 4116 197 
L 2681 1631 
L 1247 197 
L 878 575 
L 2303 2003 
L 878 3438 
L 1247 3816 
L 2681 2381 
L 4116 3816 
L 4488 3438 
z
" transform="scale(0.015625)"/>
       <path id="DejaVuSans-2212" d="M 678 2272 
L 4684 2272 
L 4684 1741 
L 678 1741 
L 678 2272 
z
" transform="scale(0.015625)"/>
      </defs>
      <use xlink:href="#DejaVuSans-d7" transform="translate(0 0.684375)"/>
      <use xlink:href="#DejaVuSans-31" transform="translate(83.789062 0.684375)"/>
      <use xlink:href="#DejaVuSans-30" transform="translate(147.412109 0.684375)"/>
      <use xlink:href="#DejaVuSans-2212" transform="translate(211.992188 38.965625) scale(0.7)"/>
      <use xlink:href="#DejaVuSans-34" transform="translate(270.644531 38.965625) scale(0.7)"/>
     </g>
    </g>
   </g>
   <g id="matplotlib.axis_2">
    <g id="ytick_1">
     <g id="line2d_13">
      <path d="M 42.678125 257.256058 
L 399.798125 257.256058 
" clip-path="url(#pe6134b2c10)" style="fill: none; stroke: #b0b0b0; stroke-opacity: 0.5; stroke-width: 0.8; stroke-linecap: square"/>
     </g>
     <g id="line2d_14">
      <defs>
       <path id="m1a95fdf19a" d="M 0 0 
L -3.5 0 
" style="stroke: #000000; stroke-width: 0.8"/>
      </defs>
      <g>
       <use xlink:href="#m1a95fdf19a" x="42.678125" y="257.256058" style="stroke: #000000; stroke-width: 0.8"/>
      </g>
     </g>
     <g id="text_9">
      <!-- $\mathdefault{−4}$ -->
      <g transform="translate(20.878125 261.055277) scale(0.1 -0.1)">
       <use xlink:href="#DejaVuSans-2212" transform="translate(0 0.09375)"/>
       <use xlink:href="#DejaVuSans-34" transform="translate(83.789062 0.09375)"/>
      </g>
     </g>
    </g>
    <g id="ytick_2">
     <g id="line2d_15">
      <path d="M 42.678125 206.332452 
L 399.798125 206.332452 
" clip-path="url(#pe6134b2c10)" style="fill: none; stroke: #b0b0b0; stroke-opacity: 0.5; stroke-width: 0.8; stroke-linecap: square"/>
     </g>
     <g id="line2d_16">
      <g>
       <use xlink:href="#m1a95fdf19a" x="42.678125" y="206.332452" style="stroke: #000000; stroke-width: 0.8"/>
      </g>
     </g>
     <g id="text_10">
      <!-- $\mathdefault{−2}$ -->
      <g transform="translate(20.878125 210.131671) scale(0.1 -0.1)">
       <use xlink:href="#DejaVuSans-2212" transform="translate(0 0.78125)"/>
       <use xlink:href="#DejaVuSans-32" transform="translate(83.789062 0.78125)"/>
      </g>
     </g>
    </g>
    <g id="ytick_3">
     <g id="line2d_17">
      <path d="M 42.678125 155.408846 
L 399.798125 155.408846 
" clip-path="url(#pe6134b2c10)" style="fill: none; stroke: #b0b0b0; stroke-opacity: 0.5; stroke-width: 0.8; stroke-linecap: square"/>
     </g>
     <g id="line2d_18">
      <g>
       <use xlink:href="#m1a95fdf19a" x="42.678125" y="155.408846" style="stroke: #000000; stroke-width: 0.8"/>
      </g>
     </g>
     <g id="text_11">
      <!-- $\mathdefault{0}$ -->
      <g transform="translate(29.278125 159.208064) scale(0.1 -0.1)">
       <use xlink:href="#DejaVuSans-30" transform="translate(0 0.78125)"/>
      </g>
     </g>
    </g>
    <g id="ytick_4">
     <g id="line2d_19">
      <path d="M 42.678125 104.485239 
L 399.798125 104.485239 
" clip-path="url(#pe6134b2c10)" style="fill: none; stroke: #b0b0b0; stroke-opacity: 0.5; stroke-width: 0.8; stroke-linecap: square"/>
     </g>
     <g id="line2d_20">
      <g>
       <use xlink:href="#m1a95fdf19a" x="42.678125" y="104.485239" style="stroke: #000000; stroke-width: 0.8"/>
      </g>
     </g>
     <g id="text_12">
      <!-- $\mathdefault{2}$ -->
      <g transform="translate(29.278125 108.284458) scale(0.1 -0.1)">
       <use xlink:href="#DejaVuSans-32" transform="translate(0 0.78125)"/>
      </g>
     </g>
    </g>
    <g id="ytick_5">
     <g id="line2d_21">
      <path d="M 42.678125 53.561633 
L 399.798125 53.561633 
" clip-path="url(#pe6134b2c10)" style="fill: none; stroke: #b0b0b0; stroke-opacity: 0.5; stroke-width: 0.8; stroke-linecap: square"/>
     </g>
     <g id="line2d_22">
      <g>
       <use xlink:href="#m1a95fdf19a" x="42.678125" y="53.561633" style="stroke: #000000; stroke-width: 0.8"/>
      </g>
     </g>
     <g id="text_13">
      <!-- $\mathdefault{4}$ -->
      <g transform="translate(29.278125 57.360851) scale(0.1 -0.1)">
       <use xlink:href="#DejaVuSans-34" transform="translate(0 0.09375)"/>
      </g>
     </g>
    </g>
    <g id="text_14">
     <!-- Amplitude Level -->
     <g transform="translate(14.798438 195.787719) rotate(-90) scale(0.1 -0.1)">
      <defs>
       <path id="DejaVuSans-41" d="M 2188 4044 
L 1331 1722 
L 3047 1722 
L 2188 4044 
z
M 1831 4666 
L 2547 4666 
L 4325 0 
L 3669 0 
L 3244 1197 
L 1141 1197 
L 716 0 
L 50 0 
L 1831 4666 
z
" transform="scale(0.015625)"/>
       <path id="DejaVuSans-6d" d="M 3328 2828 
Q 3544 3216 3844 3400 
Q 4144 3584 4550 3584 
Q 5097 3584 5394 3201 
Q 5691 2819 5691 2113 
L 5691 0 
L 5113 0 
L 5113 2094 
Q 5113 2597 4934 2840 
Q 4756 3084 4391 3084 
Q 3944 3084 3684 2787 
Q 3425 2491 3425 1978 
L 3425 0 
L 2847 0 
L 2847 2094 
Q 2847 2600 2669 2842 
Q 2491 3084 2119 3084 
Q 1678 3084 1418 2786 
Q 1159 2488 1159 1978 
L 1159 0 
L 581 0 
L 581 3500 
L 1159 3500 
L 1159 2956 
Q 1356 3278 1631 3431 
Q 1906 3584 2284 3584 
Q 2666 3584 2933 3390 
Q 3200 3197 3328 2828 
z
" transform="scale(0.015625)"/>
       <path id="DejaVuSans-70" d="M 1159 525 
L 1159 -1331 
L 581 -1331 
L 581 3500 
L 1159 3500 
L 1159 2969 
Q 1341 3281 1617 3432 
Q 1894 3584 2278 3584 
Q 2916 3584 3314 3078 
Q 3713 2572 3713 1747 
Q 3713 922 3314 415 
Q 2916 -91 2278 -91 
Q 1894 -91 1617 61 
Q 1341 213 1159 525 
z
M 3116 1747 
Q 3116 2381 2855 2742 
Q 2594 3103 2138 3103 
Q 1681 3103 1420 2742 
Q 1159 2381 1159 1747 
Q 1159 1113 1420 752 
Q 1681 391 2138 391 
Q 2594 391 2855 752 
Q 3116 1113 3116 1747 
z
" transform="scale(0.015625)"/>
       <path id="DejaVuSans-6c" d="M 603 4863 
L 1178 4863 
L 1178 0 
L 603 0 
L 603 4863 
z
" transform="scale(0.015625)"/>
       <path id="DejaVuSans-69" d="M 603 3500 
L 1178 3500 
L 1178 0 
L 603 0 
L 603 3500 
z
M 603 4863 
L 1178 4863 
L 1178 4134 
L 603 4134 
L 603 4863 
z
" transform="scale(0.015625)"/>
       <path id="DejaVuSans-74" d="M 1172 4494 
L 1172 3500 
L 2356 3500 
L 2356 3053 
L 1172 3053 
L 1172 1153 
Q 1172 725 1289 603 
Q 1406 481 1766 481 
L 2356 481 
L 2356 0 
L 1766 0 
Q 1100 0 847 248 
Q 594 497 594 1153 
L 594 3053 
L 172 3053 
L 172 3500 
L 594 3500 
L 594 4494 
L 1172 4494 
z
" transform="scale(0.015625)"/>
       <path id="DejaVuSans-75" d="M 544 1381 
L 544 3500 
L 1119 3500 
L 1119 1403 
Q 1119 906 1312 657 
Q 1506 409 1894 409 
Q 2359 409 2629 706 
Q 2900 1003 2900 1516 
L 2900 3500 
L 3475 3500 
L 3475 0 
L 2900 0 
L 2900 538 
Q 2691 219 2414 64 
Q 2138 -91 1772 -91 
Q 1169 -91 856 284 
Q 544 659 544 1381 
z
M 1991 3584 
L 1991 3584 
z
" transform="scale(0.015625)"/>
       <path id="DejaVuSans-64" d="M 2906 2969 
L 2906 4863 
L 3481 4863 
L 3481 0 
L 2906 0 
L 2906 525 
Q 2725 213 2448 61 
Q 2172 -91 1784 -91 
Q 1150 -91 751 415 
Q 353 922 353 1747 
Q 353 2572 751 3078 
Q 1150 3584 1784 3584 
Q 2172 3584 2448 3432 
Q 2725 3281 2906 2969 
z
M 947 1747 
Q 947 1113 1208 752 
Q 1469 391 1925 391 
Q 2381 391 2643 752 
Q 2906 1113 2906 1747 
Q 2906 2381 2643 2742 
Q 2381 3103 1925 3103 
Q 1469 3103 1208 2742 
Q 947 2381 947 1747 
z
" transform="scale(0.015625)"/>
       <path id="DejaVuSans-65" d="M 3597 1894 
L 3597 1613 
L 953 1613 
Q 991 1019 1311 708 
Q 1631 397 2203 397 
Q 2534 397 2845 478 
Q 3156 559 3463 722 
L 3463 178 
Q 3153 47 2828 -22 
Q 2503 -91 2169 -91 
Q 1331 -91 842 396 
Q 353 884 353 1716 
Q 353 2575 817 3079 
Q 1281 3584 2069 3584 
Q 2775 3584 3186 3129 
Q 3597 2675 3597 1894 
z
M 3022 2063 
Q 3016 2534 2758 2815 
Q 2500 3097 2075 3097 
Q 1594 3097 1305 2825 
Q 1016 2553 972 2059 
L 3022 2063 
z
" transform="scale(0.015625)"/>
       <path id="DejaVuSans-20" transform="scale(0.015625)"/>
       <path id="DejaVuSans-4c" d="M 628 4666 
L 1259 4666 
L 1259 531 
L 3531 531 
L 3531 0 
L 628 0 
L 628 4666 
z
" transform="scale(0.015625)"/>
       <path id="DejaVuSans-76" d="M 191 3500 
L 800 3500 
L 1894 563 
L 2988 3500 
L 3597 3500 
L 2284 0 
L 1503 0 
L 191 3500 
z
" transform="scale(0.015625)"/>
      </defs>
      <use xlink:href="#DejaVuSans-41"/>
      <use xlink:href="#DejaVuSans-6d" x="68.408203"/>
      <use xlink:href="#DejaVuSans-70" x="165.820312"/>
      <use xlink:href="#DejaVuSans-6c" x="229.296875"/>
      <use xlink:href="#DejaVuSans-69" x="257.080078"/>
      <use xlink:href="#DejaVuSans-74" x="284.863281"/>
      <use xlink:href="#DejaVuSans-75" x="324.072266"/>
      <use xlink:href="#DejaVuSans-64" x="387.451172"/>
      <use xlink:href="#DejaVuSans-65" x="450.927734"/>
      <use xlink:href="#DejaVuSans-20" x="512.451172"/>
      <use xlink:href="#DejaVuSans-4c" x="544.238281"/>
      <use xlink:href="#DejaVuSans-65" x="598.201172"/>
      <use xlink:href="#DejaVuSans-76" x="659.724609"/>
      <use xlink:href="#DejaVuSans-65" x="718.904297"/>
      <use xlink:href="#DejaVuSans-6c" x="780.427734"/>
     </g>
    </g>
    <g id="text_15">
     <!-- $\times\mathdefault{10^{3}}\mathdefault{}$ -->
     <g transform="translate(42.678125 19.32) scale(0.1 -0.1)">
      <defs>
       <path id="DejaVuSans-33" d="M 2597 2516 
Q 3050 2419 3304 2112 
Q 3559 1806 3559 1356 
Q 3559 666 3084 287 
Q 2609 -91 1734 -91 
Q 1441 -91 1130 -33 
Q 819 25 488 141 
L 488 750 
Q 750 597 1062 519 
Q 1375 441 1716 441 
Q 2309 441 2620 675 
Q 2931 909 2931 1356 
Q 2931 1769 2642 2001 
Q 2353 2234 1838 2234 
L 1294 2234 
L 1294 2753 
L 1863 2753 
Q 2328 2753 2575 2939 
Q 2822 3125 2822 3475 
Q 2822 3834 2567 4026 
Q 2313 4219 1838 4219 
Q 1578 4219 1281 4162 
Q 984 4106 628 3988 
L 628 4550 
Q 988 4650 1302 4700 
Q 1616 4750 1894 4750 
Q 2613 4750 3031 4423 
Q 3450 4097 3450 3541 
Q 3450 3153 3228 2886 
Q 3006 2619 2597 2516 
z
" transform="scale(0.015625)"/>
      </defs>
      <use xlink:href="#DejaVuSans-d7" transform="translate(0 0.765625)"/>
      <use xlink:href="#DejaVuSans-31" transform="translate(83.789062 0.765625)"/>
      <use xlink:href="#DejaVuSans-30" transform="translate(147.412109 0.765625)"/>
      <use xlink:href="#DejaVuSans-33" transform="translate(211.992188 39.046875) scale(0.7)"/>
     </g>
    </g>
   </g>
   <g id="line2d_23">
    <path d="M 42.678125 22.32 
L 42.749556 23.369759 
L 42.892418 31.668693 
L 43.142427 64.314227 
L 43.60673 163.786146 
L 44.178179 272.011786 
L 44.428188 288.174677 
L 44.463904 288.432 
L 44.499619 288.164184 
L 44.606766 284.231022 
L 44.821059 262.973984 
L 45.178215 196.440154 
L 45.999673 35.158992 
L 46.213967 22.834397 
L 46.249682 22.582699 
L 46.285398 22.855362 
L 46.392544 26.798016 
L 46.606838 48.048792 
L 46.963994 114.494184 
L 47.785452 275.396047 
L 47.999745 287.661027 
L 48.035461 287.906861 
L 48.071176 287.62963 
L 48.178323 283.681409 
L 48.392616 262.457937 
L 48.749772 196.166658 
L 49.57123 35.802843 
L 49.785524 23.609503 
L 49.821239 23.369759 
L 49.856955 23.651268 
L 49.964102 27.601111 
L 50.178395 48.776237 
L 50.535551 114.847851 
L 51.357009 274.515441 
L 51.571302 286.62522 
L 51.607018 286.858657 
L 51.642733 286.573169 
L 51.74988 282.625665 
L 51.964174 261.51991 
L 52.321329 195.733326 
L 53.142787 36.919406 
L 53.357081 24.904997 
L 53.392796 24.678072 
L 53.428512 24.967232 
L 53.535659 28.908421 
L 53.749952 49.923824 
L 54.107108 115.360264 
L 54.928566 273.163955 
L 55.142859 285.071307 
L 55.178575 285.291528 
L 55.214291 284.999012 
L 55.321437 281.068121 
L 55.535731 260.163992 
L 55.892886 195.142493 
L 56.714345 38.504548 
L 56.928638 26.715804 
L 56.964354 26.50247 
L 57.000069 26.798016 
L 57.107216 30.71462 
L 57.321509 51.486638 
L 57.678665 116.028781 
L 58.500123 271.346653 
L 58.714417 283.005384 
L 58.750132 283.211663 
L 58.785848 282.913419 
L 58.892994 279.015091 
L 59.107288 258.395919 
L 59.464444 194.397104 
L 60.285902 40.552284 
L 60.500195 29.034814 
L 60.535911 28.835749 
L 60.571626 29.136349 
L 60.678773 33.012416 
L 60.893066 53.458131 
L 61.250222 116.850152 
L 62.07168 269.070439 
L 62.285974 280.435569 
L 62.321689 280.627275 
L 62.357405 280.324665 
L 62.464552 276.474839 
L 62.678845 256.223047 
L 63.036001 193.500712 
L 63.857459 43.054796 
L 64.071752 31.852907 
L 64.107468 31.668693 
L 64.143184 31.972958 
L 64.25033 35.792575 
L 64.464624 55.830143 
L 64.821779 117.820533 
L 65.643238 266.344033 
L 65.857531 277.371972 
L 65.893247 277.548571 
L 65.928962 277.243014 
L 66.036109 273.457556 
L 66.250402 253.654327 
L 66.607558 192.457449 
L 67.429016 46.002467 
L 67.64331 35.158992 
L 67.679025 34.990115 
L 67.714741 35.296599 
L 67.821887 39.043965 
L 68.036181 58.592944 
L 68.393337 118.935503 
L 69.214795 263.177943 
L 69.429088 273.826653 
L 69.464804 273.987711 
L 69.500519 273.680674 
L 69.607666 269.975308 
L 69.821959 250.700263 
L 70.179115 191.272016 
L 71.000573 49.383913 
L 71.214867 38.940052 
L 71.250582 38.786898 
L 71.286298 39.09411 
L 71.393445 42.753594 
L 71.607738 61.735267 
L 71.964894 120.190086 
L 72.786352 259.584418 
L 73.000645 269.813576 
L 73.036361 269.958755 
L 73.072076 269.651751 
L 73.179223 266.041998 
L 73.393517 247.37287 
L 73.750672 189.94966 
L 74.536415 56.325481 
L 74.786424 43.181191 
L 74.822139 43.044047 
L 74.893571 44.098855 
L 75.036433 51.420398 
L 75.286442 79.35874 
L 75.78646 169.980498 
L 76.322193 252.506172 
L 76.572202 265.348554 
L 76.607918 265.477617 
L 76.679349 264.433861 
L 76.822211 257.242407 
L 77.07222 229.852375 
L 77.572238 141.11205 
L 78.107972 60.394108 
L 78.357981 47.865696 
L 78.393697 47.744749 
L 78.465128 48.776237 
L 78.60799 55.830143 
L 78.857999 82.644286 
L 79.358017 169.415169 
L 79.893751 248.246467 
L 80.14376 260.449185 
L 80.179475 260.561993 
L 80.250906 259.543986 
L 80.393769 252.634968 
L 80.643778 226.423749 
L 81.143796 141.708386 
L 81.679529 64.840748 
L 81.929538 52.9751 
L 81.965254 52.870441 
L 82.036685 53.87376 
L 82.179547 60.630677 
L 82.429556 86.212509 
L 82.929574 168.788285 
L 83.465308 243.61722 
L 83.715317 255.134784 
L 83.751032 255.231295 
L 83.822463 254.243864 
L 83.965326 247.646128 
L 84.215335 222.719548 
L 84.715353 142.365328 
L 85.251086 69.648092 
L 85.501095 58.489259 
L 85.536811 58.400881 
L 85.608242 59.37123 
L 85.751104 65.802849 
L 86.001113 90.048938 
L 86.501131 168.10181 
L 87.036865 238.636466 
L 87.286874 249.426306 
L 87.322589 249.506576 
L 87.394021 248.55449 
L 87.536883 242.295776 
L 87.786892 218.754768 
L 88.28691 143.080778 
L 88.822643 74.797395 
L 89.072652 64.386426 
L 89.108368 64.314227 
L 89.179799 65.246874 
L 89.322661 71.326053 
L 89.57267 94.138065 
L 90.072688 167.357973 
L 90.608422 233.323643 
L 90.858431 243.346264 
L 90.894147 243.410442 
L 90.965578 242.498393 
L 91.10844 236.605218 
L 91.358449 214.545416 
L 91.858467 143.852382 
L 92.394201 80.268547 
L 92.64421 70.643344 
L 92.679925 70.587127 
L 92.751356 71.47743 
L 92.894219 77.178305 
L 93.144228 98.463405 
L 93.644246 166.559255 
L 94.179979 227.699513 
L 94.429988 236.918643 
L 94.465704 236.96697 
L 94.537135 236.099545 
L 94.679997 230.597091 
L 94.930006 210.108439 
L 95.430024 144.677532 
L 95.965758 86.040153 
L 96.215767 77.235329 
L 96.251482 77.194809 
L 96.322913 78.038238 
L 96.465776 83.336335 
L 96.715785 103.007561 
L 97.215803 165.708386 
L 97.715821 219.474412 
L 97.96583 229.840397 
L 98.037261 230.201604 
L 98.072976 229.939234 
L 98.215839 225.986889 
L 98.430132 211.987092 
L 98.823003 168.426199 
L 99.501599 94.289234 
L 99.751608 84.443405 
L 99.823039 84.111178 
L 99.858755 84.367355 
L 100.001617 88.157984 
L 100.215911 101.527942 
L 100.608782 143.039594 
L 101.287378 213.521001 
L 101.537387 222.837863 
L 101.608818 223.141061 
L 101.644534 222.891469 
L 101.787396 219.266844 
L 102.037405 203.674314 
L 102.501707 154.714942 
L 103.073157 100.362701 
L 103.323166 91.583074 
L 103.394597 91.308922 
L 103.430312 91.55154 
L 103.573175 95.006027 
L 103.823184 109.790029 
L 104.287486 156.083742 
L 104.858935 207.33343 
L 105.108944 215.568099 
L 105.180375 215.813224 
L 105.216091 215.577963 
L 105.358953 212.297593 
L 105.608962 198.337577 
L 106.073265 154.755943 
L 106.644714 106.658309 
L 106.894723 98.975765 
L 106.966154 98.759616 
L 107.001869 98.98714 
L 107.144732 102.08958 
L 107.394741 115.21095 
L 107.859043 156.036749 
L 108.430492 200.93596 
L 108.680501 208.059772 
L 108.716217 208.257964 
L 108.751932 208.24703 
L 108.859079 206.970055 
L 109.037657 200.878879 
L 109.359097 179.703993 
L 110.323418 109.222942 
L 110.501995 106.416128 
L 110.537711 106.433839 
L 110.644858 107.639775 
L 110.823436 113.316685 
L 111.144876 132.956149 
L 112.109196 197.951289 
L 112.287774 200.496674 
L 112.32349 200.472357 
L 112.430636 199.339109 
L 112.609214 194.082785 
L 112.930654 175.999089 
L 113.859259 117.488023 
L 114.073553 114.270541 
L 114.109268 114.301285 
L 114.216415 115.360264 
L 114.394993 120.190086 
L 114.716433 136.699192 
L 115.645038 189.702207 
L 115.859331 192.556889 
L 115.930762 192.336549 
L 116.073625 190.175002 
L 116.323634 181.437738 
L 116.823652 152.754093 
L 117.359385 126.627097 
L 117.609394 122.37609 
L 117.64511 122.28786 
L 117.680825 122.330887 
L 117.787972 123.236857 
L 117.96655 127.19759 
L 118.28799 140.50725 
L 119.216595 182.346202 
L 119.430888 184.469951 
L 119.502319 184.257819 
L 119.645182 182.493186 
L 119.895191 175.58262 
L 120.395209 153.353696 
L 120.895227 134.377453 
L 121.145236 130.625172 
L 121.216667 130.436436 
L 121.252382 130.490937 
L 121.359529 131.238418 
L 121.573823 135.174357 
L 121.930978 147.113961 
L 122.681005 173.08241 
L 122.931014 176.138508 
L 123.002445 176.267782 
L 123.038161 176.207863 
L 123.145308 175.541497 
L 123.359601 172.189561 
L 123.752472 161.065381 
L 124.466784 141.11205 
L 124.716793 138.754108 
L 124.788224 138.684101 
L 124.82394 138.749214 
L 124.966802 139.652885 
L 125.216811 143.421635 
L 125.752544 156.530871 
L 126.252562 166.313257 
L 126.502571 167.971765 
L 126.574003 167.982762 
L 126.681149 167.626029 
L 126.895443 165.697761 
L 127.288314 159.278031 
L 127.96691 148.506559 
L 128.216919 147.043553 
L 128.324066 146.957186 
L 128.359781 146.998295 
L 128.502643 147.489588 
L 128.752652 149.407181 
L 129.859835 159.596219 
L 130.038413 159.778601 
L 130.181275 159.568295 
L 130.431284 158.619515 
L 131.288458 154.808955 
L 131.502751 154.66687 
L 131.681329 154.836062 
L 132.074201 155.674996 
L 132.395641 156.144485 
L 132.574219 156.083742 
L 132.788512 155.621924 
L 133.109952 154.221882 
L 133.788548 151.136839 
L 133.93141 151.038773 
L 133.967126 151.064256 
L 134.109988 151.38155 
L 134.324282 152.516732 
L 134.681437 155.912019 
L 135.431464 163.416676 
L 135.610042 163.86816 
L 135.645758 163.857224 
L 135.752904 163.609836 
L 135.931482 162.473602 
L 136.217207 158.923747 
L 137.32439 142.863755 
L 137.395821 142.824061 
L 137.431536 142.880645 
L 137.574399 143.623894 
L 137.788692 146.246868 
L 138.145848 153.837693 
L 138.93159 170.982599 
L 139.145884 172.141245 
L 139.217315 172.003968 
L 139.360177 170.919971 
L 139.610186 166.559255 
L 140.038773 153.902559 
L 140.645938 136.927438 
L 140.895947 134.56956 
L 140.967378 134.615564 
L 141.074525 135.310599 
L 141.288818 138.892865 
L 141.645974 150.176215 
L 142.467432 178.313532 
L 142.681725 180.366346 
L 142.753157 180.277052 
L 142.896019 178.906546 
L 143.110312 174.006175 
L 143.503184 158.300787 
L 144.217495 129.423102 
L 144.467504 126.357812 
L 144.50322 126.366483 
L 144.610366 127.085497 
L 144.788944 130.547344 
L 145.074669 141.226515 
L 146.146136 187.811559 
L 146.253283 188.524687 
L 146.288998 188.502153 
L 146.396145 187.646171 
L 146.574723 183.652872 
L 146.860447 171.470757 
L 147.931914 119.027504 
L 148.039061 118.260934 
L 148.074777 118.297467 
L 148.181923 119.290045 
L 148.360501 123.811575 
L 148.681941 139.629042 
L 149.681977 195.142493 
L 149.82484 196.552109 
L 149.860555 196.501454 
L 149.967702 195.372794 
L 150.14628 190.326778 
L 150.46772 172.804449 
L 151.467756 111.819428 
L 151.610618 110.310892 
L 151.646334 110.375777 
L 151.753481 111.639867 
L 151.932058 117.206096 
L 152.253499 136.416887 
L 153.217819 201.940666 
L 153.396397 204.416921 
L 153.467828 204.064552 
L 153.61069 201.053201 
L 153.860699 188.934472 
L 154.325002 151.204725 
L 154.896451 109.120069 
L 155.14646 102.654381 
L 155.182175 102.539074 
L 155.217891 102.632674 
L 155.325038 104.165115 
L 155.503616 110.756874 
L 155.825056 133.28869 
L 156.789376 209.303372 
L 156.967954 212.088073 
L 157.039385 211.647851 
L 157.182247 208.105696 
L 157.432256 194.031533 
L 157.896559 150.540412 
L 158.468008 102.386785 
L 158.718017 95.092376 
L 158.753733 94.976162 
L 158.789448 95.098712 
L 158.896595 96.895238 
L 159.075173 104.489238 
L 159.396613 130.256576 
L 160.360933 216.456076 
L 160.539511 219.535279 
L 160.610942 219.007755 
L 160.753805 214.94649 
L 161.003814 198.969092 
L 161.468116 149.885923 
L 162.039565 95.858466 
L 162.289574 87.768086 
L 162.32529 87.652013 
L 162.361005 87.803616 
L 162.468152 89.858865 
L 162.682445 100.861332 
L 163.039601 135.421525 
L 163.861059 220.136793 
L 164.075353 226.613524 
L 164.111068 226.729141 
L 164.146784 226.563015 
L 164.253931 224.380753 
L 164.468224 212.770722 
L 164.82538 176.395796 
L 165.646838 87.46946 
L 165.861131 80.710446 
L 165.896847 80.59554 
L 165.932562 80.776165 
L 166.039709 83.083695 
L 166.254003 95.290569 
L 166.611158 133.445089 
L 167.432616 226.493486 
L 167.64691 233.527314 
L 167.682625 233.64126 
L 167.718341 233.446179 
L 167.825488 231.015257 
L 168.039781 218.222865 
L 168.396937 178.325664 
L 169.218395 81.248258 
L 169.432688 73.947338 
L 169.468404 73.834598 
L 169.50412 74.044075 
L 169.611266 76.596382 
L 169.82556 89.962372 
L 170.182715 131.563605 
L 171.004174 232.573015 
L 171.218467 240.13306 
L 171.254183 240.244352 
L 171.289898 240.020555 
L 171.397045 237.348999 
L 171.611338 223.421915 
L 171.968494 180.157001 
L 172.789952 75.316446 
L 173.004246 67.505481 
L 173.039961 67.395873 
L 173.075677 67.633897 
L 173.182823 70.422438 
L 173.397117 84.89754 
L 173.754273 129.784125 
L 174.575731 238.351212 
L 174.790024 246.404664 
L 174.82574 246.512354 
L 174.897171 245.648763 
L 175.040033 239.669716 
L 175.290042 216.750339 
L 175.754345 147.423756 
L 176.325794 72.299288 
L 176.575803 61.410327 
L 176.611518 61.30478 
L 176.682949 62.208116 
L 176.825812 68.404918 
L 177.075821 92.102056 
L 177.540123 163.678339 
L 178.111572 241.127305 
L 178.361581 252.317344 
L 178.397297 252.420527 
L 178.468728 251.478106 
L 178.61159 245.069219 
L 178.861599 220.617064 
L 179.325902 146.861291 
L 179.897351 67.16527 
L 180.14736 55.685963 
L 180.183075 55.585359 
L 180.254507 56.566159 
L 180.397369 63.181234 
L 180.647378 88.364899 
L 181.147396 170.554188 
L 181.68313 246.091229 
L 181.933139 257.847736 
L 181.968854 257.945552 
L 182.040285 256.927124 
L 182.183148 250.111974 
L 182.433157 224.221054 
L 182.933175 139.833556 
L 183.468908 62.376398 
L 183.718917 50.355008 
L 183.754633 50.260182 
L 183.826064 51.315441 
L 183.968926 58.32434 
L 184.218935 84.89754 
L 184.718953 171.400328 
L 185.254687 250.700263 
L 185.504696 262.973984 
L 185.540411 263.065626 
L 185.611842 261.974376 
L 185.754705 254.778262 
L 186.004714 227.548452 
L 186.504732 139.0154 
L 187.040465 57.951814 
L 187.290474 45.438533 
L 187.32619 45.350263 
L 187.397621 46.476619 
L 187.540483 53.853214 
L 187.790492 81.71329 
L 188.29051 172.189561 
L 188.826244 254.935968 
L 189.076253 267.675827 
L 189.111968 267.760545 
L 189.1834 266.600011 
L 189.326262 259.049864 
L 189.576271 230.586511 
L 190.076289 138.256003 
L 190.612022 53.909232 
L 190.862031 40.95597 
L 190.897747 40.874975 
L 190.969178 42.068718 
L 191.11204 49.7853 
L 191.362049 78.824321 
L 191.862067 172.918235 
L 192.397801 258.78137 
L 192.64781 271.93468 
L 192.683526 272.011786 
L 192.754957 270.785846 
L 192.897819 262.910127 
L 193.147828 233.323643 
L 193.647846 137.55891 
L 194.18358 50.264871 
L 194.433589 36.925038 
L 194.469304 36.851975 
L 194.540735 38.10906 
L 194.683598 46.136443 
L 194.933607 76.241621 
L 195.433625 173.582918 
L 195.969358 262.221027 
L 196.219367 275.733705 
L 196.255083 275.802577 
L 196.326514 274.515441 
L 196.469376 266.344033 
L 196.719385 235.749469 
L 197.219403 136.927438 
L 197.755137 47.033383 
L 198.005146 33.361676 
L 198.040861 33.297132 
L 198.112292 34.61319 
L 198.255155 42.920821 
L 198.505164 73.974955 
L 199.005182 174.180408 
L 199.540915 265.241086 
L 199.790924 279.05788 
L 199.82664 279.117966 
L 199.898071 277.774157 
L 200.040933 269.338255 
L 200.290942 237.85485 
L 200.79096 136.364669 
L 201.326694 44.227803 
L 201.576703 30.279975 
L 201.612418 30.224467 
L 201.68385 31.594822 
L 201.826712 40.150897 
L 202.076721 72.032824 
L 202.576739 174.70775 
L 203.112472 267.829348 
L 203.362481 281.894059 
L 203.398197 281.944878 
L 203.469628 280.54922 
L 203.61249 271.881207 
L 203.862499 239.631927 
L 204.362517 135.873427 
L 204.898251 41.859486 
L 205.14826 27.692123 
L 205.183976 27.646095 
L 205.255407 29.06578 
L 205.398269 37.837366 
L 205.648278 70.422438 
L 206.148296 175.162252 
L 206.68403 269.975308 
L 206.934039 284.231022 
L 206.969754 284.272169 
L 207.041185 282.829767 
L 207.184048 273.963094 
L 207.434057 241.07415 
L 207.934075 135.456269 
L 208.469808 39.938072 
L 208.719817 25.608363 
L 208.755533 25.572179 
L 208.826964 27.035954 
L 208.969826 35.989115 
L 209.219835 69.149683 
L 209.719853 175.541497 
L 210.255587 271.670206 
L 210.505596 286.059518 
L 210.541311 286.090667 
L 210.612742 284.606892 
L 210.755605 275.575947 
L 211.005614 242.176299 
L 211.505632 135.115471 
L 212.041365 38.471438 
L 212.291374 24.036941 
L 212.32709 24.01089 
L 212.398521 25.51326 
L 212.541383 34.61319 
L 212.791392 68.219107 
L 213.29141 175.843352 
L 213.827144 272.907054 
L 214.077153 287.372307 
L 214.112868 287.393211 
L 214.220015 284.339076 
L 214.398593 269.216452 
L 214.720033 215.568099 
L 215.720069 28.242242 
L 215.898647 22.968372 
L 216.005794 26.048622 
L 216.184372 41.246268 
L 216.505812 95.098712 
L 217.505848 282.913419 
L 217.684426 288.174677 
L 217.791572 285.071307 
L 217.97015 269.813576 
L 218.29159 215.810128 
L 219.291626 27.692123 
L 219.470204 22.448724 
L 219.577351 25.572179 
L 219.755929 40.874975 
L 220.077369 94.976162 
L 221.077405 283.211663 
L 221.255983 288.432 
L 221.36313 285.291528 
L 221.541707 269.958755 
L 221.863148 215.813224 
L 222.827468 30.224467 
L 223.006046 22.448724 
L 223.041761 22.453975 
L 223.148908 25.608363 
L 223.327486 40.95597 
L 223.648926 95.092376 
L 224.613247 280.435569 
L 224.791824 288.174677 
L 224.82754 288.164184 
L 224.934687 284.999012 
L 225.113265 269.651751 
L 225.434705 215.577963 
L 226.399025 30.663253 
L 226.577603 22.968372 
L 226.613319 22.984086 
L 226.720465 26.156886 
L 226.899043 41.488596 
L 227.220483 95.446305 
L 228.184804 279.750081 
L 228.363382 287.393211 
L 228.399097 287.372307 
L 228.506244 284.19506 
L 228.684822 268.894112 
L 229.006262 215.105862 
L 229.970582 31.594822 
L 230.14916 24.01089 
L 230.184876 24.036941 
L 230.292022 27.215438 
L 230.4706 42.470416 
L 230.79204 96.035966 
L 231.756361 278.573295 
L 231.934939 286.090667 
L 231.970654 286.059518 
L 232.077801 282.882988 
L 232.256379 267.689164 
L 232.577819 214.399369 
L 233.542139 33.015717 
L 233.720717 25.572179 
L 233.756433 25.608363 
L 233.86358 28.779697 
L 234.042157 43.897219 
L 234.363598 96.858448 
L 235.327918 276.909639 
L 235.506496 284.272169 
L 235.542211 284.231022 
L 235.649358 281.068121 
L 235.827936 266.041998 
L 236.149376 213.461854 
L 237.113697 34.920546 
L 237.292274 27.646095 
L 237.32799 27.692123 
L 237.435137 30.843344 
L 237.613715 45.76304 
L 237.935155 97.909926 
L 238.899475 274.765464 
L 239.078053 281.944878 
L 239.113769 281.894059 
L 239.220915 278.757768 
L 239.399493 263.959445 
L 239.720933 212.297593 
L 240.685254 37.302004 
L 240.863832 30.224467 
L 240.899547 30.279975 
L 241.006694 33.398089 
L 241.185272 48.060187 
L 241.506712 99.18568 
L 242.471032 272.149023 
L 242.64961 279.117966 
L 242.685326 279.05788 
L 242.792472 275.961189 
L 242.97105 261.450053 
L 243.29249 210.911745 
L 244.256811 40.150897 
L 244.435389 33.297132 
L 244.471104 33.361676 
L 244.578251 36.433706 
L 244.756829 50.779267 
L 245.078269 100.680115 
L 246.042589 269.070439 
L 246.221167 275.802577 
L 246.256883 275.733705 
L 246.36403 272.689565 
L 246.542607 258.524048 
L 246.864048 209.310335 
L 247.828368 43.456183 
L 248.006946 36.851975 
L 248.042661 36.925038 
L 248.149808 39.938072 
L 248.328386 53.909232 
L 248.649826 102.386785 
L 249.614147 265.541664 
L 249.792724 272.011786 
L 249.82844 271.93468 
L 249.935587 268.955949 
L 250.114165 255.193291 
L 250.435605 207.500223 
L 251.399925 47.205012 
L 251.578503 40.874975 
L 251.614219 40.95597 
L 251.721365 43.897219 
L 251.899943 57.437417 
L 252.221383 104.29842 
L 253.185704 261.576435 
L 253.364282 267.760545 
L 253.399997 267.675827 
L 253.507144 264.775213 
L 253.685722 251.471236 
L 254.007162 205.48908 
L 254.971482 51.382773 
L 255.15006 45.350263 
L 255.185776 45.438533 
L 255.292922 48.295384 
L 255.4715 61.349594 
L 255.79294 106.406959 
L 256.757261 257.190219 
L 256.935839 263.065626 
L 256.971554 262.973984 
L 257.078701 260.163992 
L 257.257279 247.37287 
L 257.578719 203.285351 
L 258.543039 55.973158 
L 258.721617 50.260182 
L 258.757333 50.355008 
L 258.86448 53.115077 
L 259.043057 65.630032 
L 259.364498 108.703582 
L 260.328818 252.400153 
L 260.507396 257.945552 
L 260.543111 257.847736 
L 260.650258 255.140616 
L 260.828836 242.914655 
L 261.150276 200.898221 
L 262.114597 60.95822 
L 262.293175 55.585359 
L 262.32889 55.685963 
L 262.436037 58.337148 
L 262.614615 70.261555 
L 262.936055 111.178748 
L 263.900375 247.224976 
L 264.078953 252.420527 
L 264.114669 252.317344 
L 264.221815 249.725035 
L 264.400393 238.114462 
L 264.721833 198.337577 
L 265.686154 66.318443 
L 265.864732 61.30478 
L 265.900447 61.410327 
L 266.007594 63.940863 
L 266.186172 75.225615 
L 266.507612 113.822232 
L 267.471932 241.684958 
L 267.65051 246.512354 
L 267.686226 246.404664 
L 267.793373 243.938746 
L 267.97195 232.991498 
L 268.293391 195.613969 
L 269.257711 72.032824 
L 269.436289 67.395873 
L 269.50772 67.961792 
L 269.650582 73.187913 
L 269.900591 94.266789 
L 270.364894 158.868794 
L 270.936343 229.268908 
L 271.186352 240.020555 
L 271.222067 240.244352 
L 271.257783 240.13306 
L 271.36493 237.8047 
L 271.543508 227.566231 
L 271.864948 192.738564 
L 272.793553 79.869527 
L 273.007846 73.834598 
L 273.079277 74.381329 
L 273.222139 79.266383 
L 273.472148 98.849078 
L 273.936451 158.657509 
L 274.5079 223.600949 
L 274.757909 233.446179 
L 274.793625 233.64126 
L 274.82934 233.527314 
L 274.936487 231.347216 
L 275.115065 221.860305 
L 275.436505 189.7231 
L 276.36511 86.065524 
L 276.579403 80.59554 
L 276.650834 81.119884 
L 276.793697 85.642551 
L 277.043706 103.648692 
L 277.508008 158.425005 
L 278.079457 217.659545 
L 278.329466 226.563015 
L 278.365182 226.729141 
L 278.400897 226.613524 
L 278.508044 224.591883 
L 278.686622 215.89646 
L 279.008062 186.579842 
L 279.936667 92.538633 
L 280.15096 87.652013 
L 280.222391 88.150809 
L 280.365254 92.291109 
L 280.615263 108.646404 
L 281.115281 162.292902 
L 281.651014 211.46797 
L 281.901023 219.398207 
L 281.936739 219.535279 
L 281.972454 219.419006 
L 282.079601 217.565459 
L 282.293895 207.465005 
L 282.65105 175.999089 
L 283.472508 100.787715 
L 283.686802 95.098712 
L 283.722517 94.976162 
L 283.758233 95.092376 
L 283.86538 96.858448 
L 284.079673 106.406959 
L 284.436829 136.058061 
L 285.222571 205.050501 
L 285.47258 211.980019 
L 285.508296 212.088073 
L 285.544012 211.972181 
L 285.651158 210.295764 
L 285.865452 201.309427 
L 286.222607 173.503293 
L 287.00835 109.052796 
L 287.258359 102.632674 
L 287.294075 102.539074 
L 287.32979 102.654381 
L 287.436937 104.239043 
L 287.65123 112.653519 
L 288.008386 138.586339 
L 288.794129 198.432327 
L 289.044138 204.337717 
L 289.079853 204.416921 
L 289.115569 204.302465 
L 289.222715 202.811572 
L 289.437009 194.978092 
L 289.794165 170.945094 
L 290.579907 115.761619 
L 290.829916 110.375777 
L 290.865632 110.310892 
L 290.901347 110.424232 
L 291.008494 111.819428 
L 291.222787 119.06334 
L 291.579943 141.171872 
L 292.365686 191.639447 
L 292.615695 196.501454 
L 292.65141 196.552109 
L 292.687126 196.440154 
L 292.794273 195.142493 
L 293.008566 188.496148 
L 293.365722 168.334835 
L 294.151464 122.631877 
L 294.401473 118.297467 
L 294.437189 118.260934 
L 294.472904 118.371238 
L 294.580051 119.569617 
L 294.794345 125.610975 
L 295.1515 143.804229 
L 295.937243 184.69857 
L 296.187252 188.502153 
L 296.222967 188.524687 
L 296.258683 188.416302 
L 296.36583 187.318859 
L 296.580123 181.889315 
L 296.937279 165.683026 
L 297.687306 130.547344 
L 297.937315 126.490631 
L 298.008746 126.357812 
L 298.044462 126.464011 
L 298.187324 128.00957 
L 298.437333 134.603205 
L 298.901635 154.929362 
L 299.473084 176.861868 
L 299.723093 180.277052 
L 299.794525 180.366346 
L 299.83024 180.262599 
L 299.973102 178.887404 
L 300.223111 173.170629 
L 300.72313 154.373055 
L 301.258863 137.386899 
L 301.508872 134.615564 
L 301.580303 134.56956 
L 301.68745 135.115471 
L 301.866028 137.55891 
L 302.187468 145.753851 
L 303.080357 170.482574 
L 303.294651 172.106305 
L 303.366082 172.109299 
L 303.473229 171.621249 
L 303.687522 169.023471 
L 304.044678 161.212954 
L 304.794705 144.717833 
L 305.044714 142.880645 
L 305.116145 142.818641 
L 305.15186 142.863755 
L 305.294723 143.529939 
L 305.544732 146.325535 
L 306.116181 156.530871 
L 306.580483 162.772422 
L 306.830492 163.857224 
L 306.937639 163.786146 
L 307.080501 163.232243 
L 307.366226 160.867571 
L 308.366262 151.38155 
L 308.580555 151.033945 
L 308.723418 151.207648 
L 308.973427 152.112282 
L 309.902031 156.083742 
L 310.080609 156.144485 
L 310.259187 155.953325 
L 311.080645 154.685804 
L 311.259223 154.951169 
L 311.509232 155.808228 
L 312.473553 159.783878 
L 312.580699 159.67538 
L 312.759277 159.058436 
L 313.045002 156.967095 
L 314.1879 146.950598 
L 314.295047 147.144008 
L 314.473625 148.190296 
L 314.759349 151.618735 
L 315.902247 167.982762 
L 315.973679 167.971765 
L 316.080825 167.569485 
L 316.259403 165.874334 
L 316.580843 159.984253 
L 317.580879 139.07512 
L 317.723742 138.685517 
L 317.830888 139.094052 
L 318.009466 141.11205 
L 318.295191 147.4446 
L 319.402373 176.065983 
L 319.473805 176.267782 
L 319.50952 176.244849 
L 319.616667 175.675034 
L 319.795245 173.08241 
L 320.080969 165.1799 
L 321.152436 130.893369 
L 321.259583 130.436436 
L 321.295299 130.481024 
L 321.402445 131.212034 
L 321.581023 134.377453 
L 321.902463 145.324656 
L 322.902499 183.593708 
L 323.045362 184.469951 
L 323.081077 184.403589 
L 323.188224 183.51163 
L 323.366802 179.775819 
L 323.688242 167.039545 
L 324.652562 123.791719 
L 324.83114 122.28786 
L 324.902571 122.595866 
L 325.045434 124.777841 
L 325.295443 133.256588 
L 325.759745 159.372398 
L 326.331194 188.277795 
L 326.581203 192.519907 
L 326.616919 192.556889 
L 326.652634 192.446718 
L 326.759781 191.23425 
L 326.974075 184.993709 
L 327.33123 165.535698 
L 328.152688 117.820533 
L 328.366982 114.301285 
L 328.402697 114.270541 
L 328.474129 114.697872 
L 328.616991 117.488023 
L 328.867 128.091142 
L 329.331302 160.297391 
L 329.902751 195.45167 
L 330.15276 200.472357 
L 330.188476 200.496674 
L 330.259907 200.009816 
L 330.402769 196.91866 
L 330.652778 185.267231 
L 331.117081 150.061099 
L 331.68853 111.834987 
L 331.938539 106.433839 
L 331.974255 106.416128 
L 332.045686 106.96234 
L 332.188548 110.35204 
L 332.438557 123.041133 
L 332.902859 161.212954 
L 333.474309 202.471791 
L 333.724318 208.24703 
L 333.760033 208.257964 
L 333.86718 207.037552 
L 334.045758 200.93596 
L 334.331482 182.037465 
L 335.402949 100.105919 
L 335.545812 98.75562 
L 335.652958 100.086492 
L 335.831536 106.658309 
L 336.117261 126.930866 
L 337.188728 214.399369 
L 337.295875 215.813224 
L 337.33159 215.810128 
L 337.438737 214.36967 
L 337.617315 207.33343 
L 337.903039 185.706013 
L 338.974507 92.788495 
L 339.081653 91.308922 
L 339.117369 91.319254 
L 339.224516 92.868312 
L 339.403093 100.362701 
L 339.688818 123.324427 
L 340.760285 221.597662 
L 340.867432 223.141061 
L 340.903148 223.123358 
L 341.010294 221.466802 
L 341.188872 213.521001 
L 341.510312 185.438197 
L 342.510348 86.802949 
L 342.653211 84.111178 
L 342.688926 84.136376 
L 342.796073 85.899216 
L 342.974651 94.289234 
L 343.296091 123.859789 
L 344.296127 227.402651 
L 344.438989 230.201604 
L 344.474705 230.168797 
L 344.581851 228.301001 
L 344.760429 219.474412 
L 345.081869 188.444479 
L 346.081905 80.097639 
L 346.224768 77.194809 
L 346.260483 77.235329 
L 346.36763 79.206641 
L 346.546208 88.461711 
L 346.867648 120.921189 
L 347.867684 233.963657 
L 348.010546 236.96697 
L 348.046262 236.918643 
L 348.153409 234.845366 
L 348.331986 225.170343 
L 348.653427 191.312581 
L 349.617747 75.27599 
L 349.796325 70.587127 
L 349.83204 70.643344 
L 349.939187 72.816924 
L 350.117765 82.902944 
L 350.439205 118.126329 
L 351.403526 238.573858 
L 351.582103 243.410442 
L 351.617819 243.346264 
L 351.724966 241.07415 
L 351.903544 230.586511 
L 352.224984 194.031533 
L 353.189304 69.293148 
L 353.367882 64.314227 
L 353.403598 64.386426 
L 353.510744 66.755197 
L 353.689322 77.634667 
L 354.010762 115.485874 
L 354.975083 244.390825 
L 355.153661 249.506576 
L 355.189376 249.426306 
L 355.296523 246.962861 
L 355.475101 235.701753 
L 355.796541 196.590983 
L 356.760861 63.647835 
L 356.939439 58.400881 
L 356.975155 58.489259 
L 357.082301 61.04529 
L 357.260879 72.677451 
L 357.582319 113.009852 
L 358.54664 249.858874 
L 358.725218 255.231295 
L 358.760933 255.134784 
L 358.86808 252.488355 
L 359.046658 240.496111 
L 359.368098 198.981237 
L 360.332418 58.362487 
L 360.510996 52.870441 
L 360.546712 52.9751 
L 360.653859 55.709635 
L 360.832436 68.050619 
L 361.153877 110.707615 
L 362.118197 254.956263 
L 362.296775 260.561993 
L 362.33249 260.449185 
L 362.439637 257.628931 
L 362.618215 244.950912 
L 362.939655 201.193297 
L 363.903976 53.458131 
L 364.082553 47.744749 
L 364.118269 47.865696 
L 364.225416 50.769182 
L 364.403994 63.772179 
L 364.725434 108.587802 
L 365.689754 259.662704 
L 365.868332 265.477617 
L 365.904048 265.348554 
L 366.011194 262.364416 
L 366.189772 249.048837 
L 366.511212 203.218889 
L 367.475533 48.954294 
L 367.654111 43.044047 
L 367.689826 43.181191 
L 367.796973 46.24331 
L 367.975551 59.858746 
L 368.296991 106.658309 
L 369.261311 263.959445 
L 369.439889 269.958755 
L 369.51132 269.216452 
L 369.654183 262.375574 
L 369.904192 234.641246 
L 370.368494 148.745249 
L 370.939943 53.780508 
L 371.189952 39.09411 
L 371.225668 38.786898 
L 371.261383 38.940052 
L 371.36853 42.149757 
L 371.547108 56.325481 
L 371.868548 104.926259 
L 372.832868 267.829348 
L 373.011446 273.987711 
L 373.082877 273.197837 
L 373.22574 266.076217 
L 373.475749 237.318863 
L 373.940051 148.445041 
L 374.5115 50.393594 
L 374.761509 35.296599 
L 374.797225 34.990115 
L 374.83294 35.158992 
L 374.940087 38.504548 
L 375.118665 53.186032 
L 375.440105 103.397974 
L 376.404426 271.256949 
L 376.583003 277.548571 
L 376.654435 276.713651 
L 376.797297 269.338255 
L 377.047306 239.669716 
L 377.511608 148.167717 
L 378.083057 47.419056 
L 378.333066 31.972958 
L 378.368782 31.668693 
L 378.404498 31.852907 
L 378.511644 35.321933 
L 378.690222 50.452482 
L 379.011662 102.078955 
L 379.975983 274.228529 
L 380.154561 280.627275 
L 380.225992 279.750081 
L 380.368854 272.149023 
L 380.618863 241.684958 
L 381.083166 147.914973 
L 381.654615 44.868933 
L 381.904624 29.136349 
L 381.940339 28.835749 
L 381.976055 29.034814 
L 382.083202 32.61433 
L 382.261779 48.135302 
L 382.58322 100.973861 
L 383.54754 276.732162 
L 383.726118 283.211663 
L 383.797549 282.295214 
L 383.940411 274.497648 
L 384.19042 243.357079 
L 384.654723 147.688421 
L 385.226172 42.753594 
L 385.476181 26.798016 
L 385.511896 26.50247 
L 385.547612 26.715804 
L 385.654759 30.392278 
L 385.833337 46.24331 
L 386.154777 100.086492 
L 387.119097 278.757768 
L 387.297675 285.291528 
L 387.369106 284.339076 
L 387.511968 276.375085 
L 387.761977 244.679933 
L 388.22628 147.489588 
L 388.797729 41.081698 
L 389.047738 24.967232 
L 389.083454 24.678072 
L 389.119169 24.904997 
L 389.226316 28.664393 
L 389.404894 44.783636 
L 389.726334 99.419777 
L 390.690654 280.297148 
L 390.869232 286.858657 
L 390.940663 285.873677 
L 391.083526 277.774157 
L 391.333535 245.648763 
L 391.797837 147.319897 
L 392.369286 39.860157 
L 392.619295 23.651268 
L 392.655011 23.369759 
L 392.690726 23.609503 
L 392.797873 27.437341 
L 392.976451 43.761701 
L 393.297891 98.975765 
L 394.262211 281.344024 
L 394.440789 287.906861 
L 394.51222 286.893036 
L 394.655083 278.689575 
L 394.905092 246.260216 
L 395.369394 147.180669 
L 395.940843 39.09411 
L 396.190852 22.855362 
L 396.226568 22.582699 
L 396.262283 22.834397 
L 396.36943 26.715804 
L 396.548008 43.181191 
L 396.869448 98.75562 
L 397.833769 281.894059 
L 398.012346 288.432 
L 398.083778 287.393211 
L 398.22664 279.117966 
L 398.476649 246.512354 
L 398.940951 147.073108 
L 399.5124 38.786898 
L 399.762409 22.582699 
L 399.798125 22.32 
L 399.798125 22.32 
" style="fill: none; stroke: #000000; stroke-width: 0.5; stroke-linecap: square"/>
   </g>
   <g id="patch_3">
    <path d="M 42.678125 288.432 
L 42.678125 22.32 
" style="fill: none; stroke: #000000; stroke-width: 0.8; stroke-linejoin: miter; stroke-linecap: square"/>
   </g>
   <g id="patch_4">
    <path d="M 399.798125 288.432 
L 399.798125 22.32 
" style="fill: none; stroke: #000000; stroke-width: 0.8; stroke-linejoin: miter; stroke-linecap: square"/>
   </g>
   <g id="patch_5">
    <path d="M 42.678125 288.432 
L 399.798125 288.432 
" style="fill: none; stroke: #000000; stroke-width: 0.8; stroke-linejoin: miter; stroke-linecap: square"/>
   </g>
   <g id="patch_6">
    <path d="M 42.678125 22.32 
L 399.798125 22.32 
" style="fill: none; stroke: #000000; stroke-width: 0.8; stroke-linejoin: miter; stroke-linecap: square"/>
   </g>
   <g id="text_16">
    <!-- Waveform of DSB-SC signal $v_a(t)$ for $abcd = 5227$ -->
    <g transform="translate(73.758125 16.32) scale(0.12 -0.12)">
     <defs>
      <path id="DejaVuSans-57" d="M 213 4666 
L 850 4666 
L 1831 722 
L 2809 4666 
L 3519 4666 
L 4500 722 
L 5478 4666 
L 6119 4666 
L 4947 0 
L 4153 0 
L 3169 4050 
L 2175 0 
L 1381 0 
L 213 4666 
z
" transform="scale(0.015625)"/>
      <path id="DejaVuSans-61" d="M 2194 1759 
Q 1497 1759 1228 1600 
Q 959 1441 959 1056 
Q 959 750 1161 570 
Q 1363 391 1709 391 
Q 2188 391 2477 730 
Q 2766 1069 2766 1631 
L 2766 1759 
L 2194 1759 
z
M 3341 1997 
L 3341 0 
L 2766 0 
L 2766 531 
Q 2569 213 2275 61 
Q 1981 -91 1556 -91 
Q 1019 -91 701 211 
Q 384 513 384 1019 
Q 384 1609 779 1909 
Q 1175 2209 1959 2209 
L 2766 2209 
L 2766 2266 
Q 2766 2663 2505 2880 
Q 2244 3097 1772 3097 
Q 1472 3097 1187 3025 
Q 903 2953 641 2809 
L 641 3341 
Q 956 3463 1253 3523 
Q 1550 3584 1831 3584 
Q 2591 3584 2966 3190 
Q 3341 2797 3341 1997 
z
" transform="scale(0.015625)"/>
      <path id="DejaVuSans-66" d="M 2375 4863 
L 2375 4384 
L 1825 4384 
Q 1516 4384 1395 4259 
Q 1275 4134 1275 3809 
L 1275 3500 
L 2222 3500 
L 2222 3053 
L 1275 3053 
L 1275 0 
L 697 0 
L 697 3053 
L 147 3053 
L 147 3500 
L 697 3500 
L 697 3744 
Q 697 4328 969 4595 
Q 1241 4863 1831 4863 
L 2375 4863 
z
" transform="scale(0.015625)"/>
      <path id="DejaVuSans-6f" d="M 1959 3097 
Q 1497 3097 1228 2736 
Q 959 2375 959 1747 
Q 959 1119 1226 758 
Q 1494 397 1959 397 
Q 2419 397 2687 759 
Q 2956 1122 2956 1747 
Q 2956 2369 2687 2733 
Q 2419 3097 1959 3097 
z
M 1959 3584 
Q 2709 3584 3137 3096 
Q 3566 2609 3566 1747 
Q 3566 888 3137 398 
Q 2709 -91 1959 -91 
Q 1206 -91 779 398 
Q 353 888 353 1747 
Q 353 2609 779 3096 
Q 1206 3584 1959 3584 
z
" transform="scale(0.015625)"/>
      <path id="DejaVuSans-72" d="M 2631 2963 
Q 2534 3019 2420 3045 
Q 2306 3072 2169 3072 
Q 1681 3072 1420 2755 
Q 1159 2438 1159 1844 
L 1159 0 
L 581 0 
L 581 3500 
L 1159 3500 
L 1159 2956 
Q 1341 3275 1631 3429 
Q 1922 3584 2338 3584 
Q 2397 3584 2469 3576 
Q 2541 3569 2628 3553 
L 2631 2963 
z
" transform="scale(0.015625)"/>
      <path id="DejaVuSans-44" d="M 1259 4147 
L 1259 519 
L 2022 519 
Q 2988 519 3436 956 
Q 3884 1394 3884 2338 
Q 3884 3275 3436 3711 
Q 2988 4147 2022 4147 
L 1259 4147 
z
M 628 4666 
L 1925 4666 
Q 3281 4666 3915 4102 
Q 4550 3538 4550 2338 
Q 4550 1131 3912 565 
Q 3275 0 1925 0 
L 628 0 
L 628 4666 
z
" transform="scale(0.015625)"/>
      <path id="DejaVuSans-53" d="M 3425 4513 
L 3425 3897 
Q 3066 4069 2747 4153 
Q 2428 4238 2131 4238 
Q 1616 4238 1336 4038 
Q 1056 3838 1056 3469 
Q 1056 3159 1242 3001 
Q 1428 2844 1947 2747 
L 2328 2669 
Q 3034 2534 3370 2195 
Q 3706 1856 3706 1288 
Q 3706 609 3251 259 
Q 2797 -91 1919 -91 
Q 1588 -91 1214 -16 
Q 841 59 441 206 
L 441 856 
Q 825 641 1194 531 
Q 1563 422 1919 422 
Q 2459 422 2753 634 
Q 3047 847 3047 1241 
Q 3047 1584 2836 1778 
Q 2625 1972 2144 2069 
L 1759 2144 
Q 1053 2284 737 2584 
Q 422 2884 422 3419 
Q 422 4038 858 4394 
Q 1294 4750 2059 4750 
Q 2388 4750 2728 4690 
Q 3069 4631 3425 4513 
z
" transform="scale(0.015625)"/>
      <path id="DejaVuSans-42" d="M 1259 2228 
L 1259 519 
L 2272 519 
Q 2781 519 3026 730 
Q 3272 941 3272 1375 
Q 3272 1813 3026 2020 
Q 2781 2228 2272 2228 
L 1259 2228 
z
M 1259 4147 
L 1259 2741 
L 2194 2741 
Q 2656 2741 2882 2914 
Q 3109 3088 3109 3444 
Q 3109 3797 2882 3972 
Q 2656 4147 2194 4147 
L 1259 4147 
z
M 628 4666 
L 2241 4666 
Q 2963 4666 3353 4366 
Q 3744 4066 3744 3513 
Q 3744 3084 3544 2831 
Q 3344 2578 2956 2516 
Q 3422 2416 3680 2098 
Q 3938 1781 3938 1306 
Q 3938 681 3513 340 
Q 3088 0 2303 0 
L 628 0 
L 628 4666 
z
" transform="scale(0.015625)"/>
      <path id="DejaVuSans-2d" d="M 313 2009 
L 1997 2009 
L 1997 1497 
L 313 1497 
L 313 2009 
z
" transform="scale(0.015625)"/>
      <path id="DejaVuSans-43" d="M 4122 4306 
L 4122 3641 
Q 3803 3938 3442 4084 
Q 3081 4231 2675 4231 
Q 1875 4231 1450 3742 
Q 1025 3253 1025 2328 
Q 1025 1406 1450 917 
Q 1875 428 2675 428 
Q 3081 428 3442 575 
Q 3803 722 4122 1019 
L 4122 359 
Q 3791 134 3420 21 
Q 3050 -91 2638 -91 
Q 1578 -91 968 557 
Q 359 1206 359 2328 
Q 359 3453 968 4101 
Q 1578 4750 2638 4750 
Q 3056 4750 3426 4639 
Q 3797 4528 4122 4306 
z
" transform="scale(0.015625)"/>
      <path id="DejaVuSans-73" d="M 2834 3397 
L 2834 2853 
Q 2591 2978 2328 3040 
Q 2066 3103 1784 3103 
Q 1356 3103 1142 2972 
Q 928 2841 928 2578 
Q 928 2378 1081 2264 
Q 1234 2150 1697 2047 
L 1894 2003 
Q 2506 1872 2764 1633 
Q 3022 1394 3022 966 
Q 3022 478 2636 193 
Q 2250 -91 1575 -91 
Q 1294 -91 989 -36 
Q 684 19 347 128 
L 347 722 
Q 666 556 975 473 
Q 1284 391 1588 391 
Q 1994 391 2212 530 
Q 2431 669 2431 922 
Q 2431 1156 2273 1281 
Q 2116 1406 1581 1522 
L 1381 1569 
Q 847 1681 609 1914 
Q 372 2147 372 2553 
Q 372 3047 722 3315 
Q 1072 3584 1716 3584 
Q 2034 3584 2315 3537 
Q 2597 3491 2834 3397 
z
" transform="scale(0.015625)"/>
      <path id="DejaVuSans-67" d="M 2906 1791 
Q 2906 2416 2648 2759 
Q 2391 3103 1925 3103 
Q 1463 3103 1205 2759 
Q 947 2416 947 1791 
Q 947 1169 1205 825 
Q 1463 481 1925 481 
Q 2391 481 2648 825 
Q 2906 1169 2906 1791 
z
M 3481 434 
Q 3481 -459 3084 -895 
Q 2688 -1331 1869 -1331 
Q 1566 -1331 1297 -1286 
Q 1028 -1241 775 -1147 
L 775 -588 
Q 1028 -725 1275 -790 
Q 1522 -856 1778 -856 
Q 2344 -856 2625 -561 
Q 2906 -266 2906 331 
L 2906 616 
Q 2728 306 2450 153 
Q 2172 0 1784 0 
Q 1141 0 747 490 
Q 353 981 353 1791 
Q 353 2603 747 3093 
Q 1141 3584 1784 3584 
Q 2172 3584 2450 3431 
Q 2728 3278 2906 2969 
L 2906 3500 
L 3481 3500 
L 3481 434 
z
" transform="scale(0.015625)"/>
      <path id="DejaVuSans-6e" d="M 3513 2113 
L 3513 0 
L 2938 0 
L 2938 2094 
Q 2938 2591 2744 2837 
Q 2550 3084 2163 3084 
Q 1697 3084 1428 2787 
Q 1159 2491 1159 1978 
L 1159 0 
L 581 0 
L 581 3500 
L 1159 3500 
L 1159 2956 
Q 1366 3272 1645 3428 
Q 1925 3584 2291 3584 
Q 2894 3584 3203 3211 
Q 3513 2838 3513 2113 
z
" transform="scale(0.015625)"/>
      <path id="DejaVuSans-Oblique-76" d="M 459 3500 
L 1069 3500 
L 1581 525 
L 3256 3500 
L 3866 3500 
L 1875 0 
L 1100 0 
L 459 3500 
z
" transform="scale(0.015625)"/>
      <path id="DejaVuSans-Oblique-61" d="M 3438 1997 
L 3047 0 
L 2472 0 
L 2578 531 
Q 2325 219 2001 64 
Q 1678 -91 1281 -91 
Q 834 -91 548 182 
Q 263 456 263 884 
Q 263 1497 752 1853 
Q 1241 2209 2100 2209 
L 2900 2209 
L 2931 2363 
Q 2938 2388 2941 2417 
Q 2944 2447 2944 2509 
Q 2944 2788 2717 2942 
Q 2491 3097 2081 3097 
Q 1800 3097 1504 3025 
Q 1209 2953 897 2809 
L 997 3341 
Q 1322 3463 1633 3523 
Q 1944 3584 2234 3584 
Q 2853 3584 3176 3315 
Q 3500 3047 3500 2534 
Q 3500 2431 3484 2292 
Q 3469 2153 3438 1997 
z
M 2816 1759 
L 2241 1759 
Q 1534 1759 1195 1570 
Q 856 1381 856 984 
Q 856 709 1029 553 
Q 1203 397 1509 397 
Q 1978 397 2328 733 
Q 2678 1069 2791 1631 
L 2816 1759 
z
" transform="scale(0.015625)"/>
      <path id="DejaVuSans-28" d="M 1984 4856 
Q 1566 4138 1362 3434 
Q 1159 2731 1159 2009 
Q 1159 1288 1364 580 
Q 1569 -128 1984 -844 
L 1484 -844 
Q 1016 -109 783 600 
Q 550 1309 550 2009 
Q 550 2706 781 3412 
Q 1013 4119 1484 4856 
L 1984 4856 
z
" transform="scale(0.015625)"/>
      <path id="DejaVuSans-29" d="M 513 4856 
L 1013 4856 
Q 1481 4119 1714 3412 
Q 1947 2706 1947 2009 
Q 1947 1309 1714 600 
Q 1481 -109 1013 -844 
L 513 -844 
Q 928 -128 1133 580 
Q 1338 1288 1338 2009 
Q 1338 2731 1133 3434 
Q 928 4138 513 4856 
z
" transform="scale(0.015625)"/>
      <path id="DejaVuSans-Oblique-62" d="M 3169 2138 
Q 3169 2591 2961 2847 
Q 2753 3103 2388 3103 
Q 2122 3103 1889 2973 
Q 1656 2844 1484 2597 
Q 1303 2338 1198 1995 
Q 1094 1653 1094 1313 
Q 1094 881 1298 636 
Q 1503 391 1863 391 
Q 2134 391 2365 517 
Q 2597 644 2772 891 
Q 2950 1147 3059 1487 
Q 3169 1828 3169 2138 
z
M 1381 2969 
Q 1594 3256 1914 3420 
Q 2234 3584 2584 3584 
Q 3122 3584 3439 3221 
Q 3756 2859 3756 2241 
Q 3756 1734 3570 1259 
Q 3384 784 3041 416 
Q 2816 172 2522 40 
Q 2228 -91 1906 -91 
Q 1566 -91 1316 65 
Q 1066 222 909 531 
L 806 0 
L 231 0 
L 1178 4863 
L 1753 4863 
L 1381 2969 
z
" transform="scale(0.015625)"/>
      <path id="DejaVuSans-Oblique-63" d="M 3431 3366 
L 3316 2797 
Q 3109 2947 2876 3022 
Q 2644 3097 2394 3097 
Q 2119 3097 1870 3000 
Q 1622 2903 1453 2725 
Q 1184 2453 1037 2087 
Q 891 1722 891 1331 
Q 891 859 1127 628 
Q 1363 397 1844 397 
Q 2081 397 2348 469 
Q 2616 541 2906 684 
L 2797 116 
Q 2547 13 2283 -39 
Q 2019 -91 1741 -91 
Q 1044 -91 669 257 
Q 294 606 294 1253 
Q 294 1797 489 2255 
Q 684 2713 1069 3078 
Q 1331 3328 1684 3456 
Q 2038 3584 2456 3584 
Q 2700 3584 2940 3529 
Q 3181 3475 3431 3366 
z
" transform="scale(0.015625)"/>
      <path id="DejaVuSans-Oblique-64" d="M 2675 525 
Q 2444 222 2128 65 
Q 1813 -91 1428 -91 
Q 903 -91 598 267 
Q 294 625 294 1247 
Q 294 1766 478 2236 
Q 663 2706 1013 3078 
Q 1244 3325 1534 3454 
Q 1825 3584 2144 3584 
Q 2481 3584 2739 3421 
Q 2997 3259 3138 2956 
L 3513 4863 
L 4091 4863 
L 3144 0 
L 2566 0 
L 2675 525 
z
M 891 1350 
Q 891 897 1095 644 
Q 1300 391 1663 391 
Q 1931 391 2161 520 
Q 2391 650 2566 903 
Q 2750 1166 2856 1509 
Q 2963 1853 2963 2188 
Q 2963 2622 2758 2865 
Q 2553 3109 2194 3109 
Q 1922 3109 1687 2981 
Q 1453 2853 1288 2613 
Q 1106 2353 998 2009 
Q 891 1666 891 1350 
z
" transform="scale(0.015625)"/>
      <path id="DejaVuSans-3d" d="M 678 2906 
L 4684 2906 
L 4684 2381 
L 678 2381 
L 678 2906 
z
M 678 1631 
L 4684 1631 
L 4684 1100 
L 678 1100 
L 678 1631 
z
" transform="scale(0.015625)"/>
      <path id="DejaVuSans-35" d="M 691 4666 
L 3169 4666 
L 3169 4134 
L 1269 4134 
L 1269 2991 
Q 1406 3038 1543 3061 
Q 1681 3084 1819 3084 
Q 2600 3084 3056 2656 
Q 3513 2228 3513 1497 
Q 3513 744 3044 326 
Q 2575 -91 1722 -91 
Q 1428 -91 1123 -41 
Q 819 9 494 109 
L 494 744 
Q 775 591 1075 516 
Q 1375 441 1709 441 
Q 2250 441 2565 725 
Q 2881 1009 2881 1497 
Q 2881 1984 2565 2268 
Q 2250 2553 1709 2553 
Q 1456 2553 1204 2497 
Q 953 2441 691 2322 
L 691 4666 
z
" transform="scale(0.015625)"/>
      <path id="DejaVuSans-37" d="M 525 4666 
L 3525 4666 
L 3525 4397 
L 1831 0 
L 1172 0 
L 2766 4134 
L 525 4134 
L 525 4666 
z
" transform="scale(0.015625)"/>
     </defs>
     <use xlink:href="#DejaVuSans-57" transform="translate(0 0.015625)"/>
     <use xlink:href="#DejaVuSans-61" transform="translate(98.876953 0.015625)"/>
     <use xlink:href="#DejaVuSans-76" transform="translate(160.15625 0.015625)"/>
     <use xlink:href="#DejaVuSans-65" transform="translate(219.335938 0.015625)"/>
     <use xlink:href="#DejaVuSans-66" transform="translate(280.859375 0.015625)"/>
     <use xlink:href="#DejaVuSans-6f" transform="translate(316.064453 0.015625)"/>
     <use xlink:href="#DejaVuSans-72" transform="translate(377.246094 0.015625)"/>
     <use xlink:href="#DejaVuSans-6d" transform="translate(418.359375 0.015625)"/>
     <use xlink:href="#DejaVuSans-20" transform="translate(515.771484 0.015625)"/>
     <use xlink:href="#DejaVuSans-6f" transform="translate(547.558594 0.015625)"/>
     <use xlink:href="#DejaVuSans-66" transform="translate(608.740234 0.015625)"/>
     <use xlink:href="#DejaVuSans-20" transform="translate(643.945312 0.015625)"/>
     <use xlink:href="#DejaVuSans-44" transform="translate(675.732422 0.015625)"/>
     <use xlink:href="#DejaVuSans-53" transform="translate(752.734375 0.015625)"/>
     <use xlink:href="#DejaVuSans-42" transform="translate(816.210938 0.015625)"/>
     <use xlink:href="#DejaVuSans-2d" transform="translate(884.814453 0.015625)"/>
     <use xlink:href="#DejaVuSans-53" transform="translate(920.898438 0.015625)"/>
     <use xlink:href="#DejaVuSans-43" transform="translate(984.375 0.015625)"/>
     <use xlink:href="#DejaVuSans-20" transform="translate(1054.199219 0.015625)"/>
     <use xlink:href="#DejaVuSans-73" transform="translate(1085.986328 0.015625)"/>
     <use xlink:href="#DejaVuSans-69" transform="translate(1138.085938 0.015625)"/>
     <use xlink:href="#DejaVuSans-67" transform="translate(1165.869141 0.015625)"/>
     <use xlink:href="#DejaVuSans-6e" transform="translate(1229.345703 0.015625)"/>
     <use xlink:href="#DejaVuSans-61" transform="translate(1292.724609 0.015625)"/>
     <use xlink:href="#DejaVuSans-6c" transform="translate(1354.003906 0.015625)"/>
     <use xlink:href="#DejaVuSans-20" transform="translate(1381.787109 0.015625)"/>
     <use xlink:href="#DejaVuSans-Oblique-76" transform="translate(1413.574219 0.015625)"/>
     <use xlink:href="#DejaVuSans-Oblique-61" transform="translate(1472.753906 -16.390625) scale(0.7)"/>
     <use xlink:href="#DejaVuSans-28" transform="translate(1518.383789 0.015625)"/>
     <use xlink:href="#DejaVuSans-Oblique-74" transform="translate(1557.397461 0.015625)"/>
     <use xlink:href="#DejaVuSans-29" transform="translate(1596.606445 0.015625)"/>
     <use xlink:href="#DejaVuSans-20" transform="translate(1635.620117 0.015625)"/>
     <use xlink:href="#DejaVuSans-66" transform="translate(1667.407227 0.015625)"/>
     <use xlink:href="#DejaVuSans-6f" transform="translate(1702.612305 0.015625)"/>
     <use xlink:href="#DejaVuSans-72" transform="translate(1763.793945 0.015625)"/>
     <use xlink:href="#DejaVuSans-20" transform="translate(1804.907227 0.015625)"/>
     <use xlink:href="#DejaVuSans-Oblique-61" transform="translate(1836.694336 0.015625)"/>
     <use xlink:href="#DejaVuSans-Oblique-62" transform="translate(1897.973633 0.015625)"/>
     <use xlink:href="#DejaVuSans-Oblique-63" transform="translate(1961.450195 0.015625)"/>
     <use xlink:href="#DejaVuSans-Oblique-64" transform="translate(2016.430664 0.015625)"/>
     <use xlink:href="#DejaVuSans-3d" transform="translate(2099.389648 0.015625)"/>
     <use xlink:href="#DejaVuSans-35" transform="translate(2202.661133 0.015625)"/>
     <use xlink:href="#DejaVuSans-32" transform="translate(2266.28418 0.015625)"/>
     <use xlink:href="#DejaVuSans-32" transform="translate(2329.907227 0.015625)"/>
     <use xlink:href="#DejaVuSans-37" transform="translate(2393.530273 0.015625)"/>
    </g>
   </g>
  </g>
 </g>
 <defs>
  <clipPath id="pe6134b2c10">
   <rect x="42.678125" y="22.32" width="357.12" height="266.112"/>
  </clipPath>
 </defs>
</svg>
